<?xml version="1.0" standalone="no"?>
<!DOCTYPE svg PUBLIC "-//W3C//DTD SVG 20010904//EN"
 "http://www.w3.org/TR/2001/REC-SVG-20010904/DTD/svg10.dtd">
<svg version="1.0" xmlns="http://www.w3.org/2000/svg"
 width="544.000000pt" height="544.000000pt" viewBox="0 0 544.000000 544.000000"
 preserveAspectRatio="xMidYMid meet">
<metadata>
Created by potrace 1.14, written by Peter Selinger 2001-2017
</metadata>
<g transform="translate(0.000000,544.000000) scale(0.100000,-0.100000)"
fill="#000000" stroke="none">
<path d="M2778 5125 c-3 -3 -74 -7 -159 -10 -85 -2 -163 -6 -174 -9 -11 -2
-42 -7 -68 -10 -27 -4 -56 -9 -65 -10 -10 -2 -39 -7 -67 -11 -27 -5 -52 -9
-55 -10 -3 -1 -23 -5 -45 -10 -56 -13 -55 -12 -57 -14 -2 -2 -14 -5 -27 -7
-24 -4 -220 -68 -251 -81 -8 -3 -17 -7 -20 -8 -3 -1 -22 -9 -44 -18 -21 -9
-40 -17 -43 -17 -15 0 -255 -127 -336 -178 -184 -116 -315 -221 -466 -373
-270 -270 -504 -651 -611 -994 -7 -22 -18 -58 -25 -80 -21 -62 -63 -254 -70
-315 -4 -30 -8 -57 -10 -61 -27 -44 -26 -598 2 -714 2 -11 5 -27 5 -35 0 -8
11 -64 24 -125 123 -587 438 -1098 910 -1477 67 -54 244 -177 274 -191 8 -4
31 -17 50 -28 111 -67 368 -181 490 -217 167 -49 327 -86 430 -98 25 -3 63 -8
85 -11 62 -9 462 -9 535 1 171 22 201 27 325 57 208 51 313 89 537 194 129 60
380 220 474 302 12 10 46 38 75 63 233 198 460 491 605 780 45 90 71 146 79
170 1 3 7 19 14 35 31 77 60 163 66 195 4 19 11 40 15 45 5 6 11 26 14 45 3
19 10 50 15 68 17 58 41 193 60 347 9 72 7 480 -3 525 -3 14 -7 45 -10 70 -20
170 -102 473 -167 617 -10 24 -19 45 -19 48 0 7 -93 194 -125 250 -132 234
-350 501 -545 665 -29 25 -58 50 -64 55 -28 26 -138 106 -206 150 -41 27 -87
56 -102 66 -46 32 -279 145 -374 182 -77 31 -263 90 -314 102 -136 30 -192 40
-265 50 -27 3 -63 8 -80 11 -16 2 -67 6 -112 8 -44 2 -85 6 -91 10 -5 3 -11 3
-14 1z"/>
</g>
</svg>
